<?xml version="1.0" encoding="UTF-8" standalone="no"?>
<!DOCTYPE svg PUBLIC "-//W3C//DTD SVG 1.1//EN"
 "http://www.w3.org/Graphics/SVG/1.1/DTD/svg11.dtd">
<!-- Generated by graphviz version 10.0.1 (20240210.2158)
 -->
<!-- Title: NoneDB Pages: 1 -->
<svg width="552pt" height="554pt"
 viewBox="0.00 0.00 552.00 553.50" xmlns="http://www.w3.org/2000/svg" xmlns:xlink="http://www.w3.org/1999/xlink">
<g id="graph0" class="graph" transform="scale(1 1) rotate(0) translate(4 549.5)">
<title>NoneDB</title>
<polygon fill="white" stroke="none" points="-4,4 -4,-549.5 548,-549.5 548,4 -4,4"/>
<text text-anchor="middle" x="272" y="-520.6" font-family="Helvetica,sans-Serif" font-size="22.00">File Based Workflow</text>
<g id="clust1" class="cluster">
<title>cluster_we</title>
<polygon fill="none" stroke="black" points="95,-368 95,-452.75 249,-452.75 249,-368 95,-368"/>
<text text-anchor="middle" x="172" y="-427.85" font-family="Helvetica,sans-Serif" font-size="22.00">Geneva Editor</text>
</g>
<g id="clust2" class="cluster">
<title>cluster_comp</title>
<polygon fill="none" stroke="black" points="8,-8 8,-92.75 162,-92.75 162,-8 8,-8"/>
<text text-anchor="middle" x="85" y="-67.85" font-family="Helvetica,sans-Serif" font-size="22.00">Git Repository</text>
</g>
<g id="clust3" class="cluster">
<title>cluster_data</title>
<polygon fill="none" stroke="black" points="153,-188 153,-272.75 340,-272.75 340,-188 153,-188"/>
<text text-anchor="middle" x="246.5" y="-247.85" font-family="Helvetica,sans-Serif" font-size="22.00">Run Control Apps</text>
</g>
<g id="clust4" class="cluster">
<title>cluster_reports</title>
<polygon fill="none" stroke="black" points="170,-8 170,-92.75 314,-92.75 314,-8 170,-8"/>
<text text-anchor="middle" x="242" y="-67.85" font-family="Helvetica,sans-Serif" font-size="22.00">RCA Reports</text>
</g>
<g id="clust5" class="cluster">
<title>cluster_rcfiles</title>
<polygon fill="none" stroke="black" points="322,-8 322,-92.75 536,-92.75 536,-8 322,-8"/>
<text text-anchor="middle" x="429" y="-67.85" font-family="Helvetica,sans-Serif" font-size="22.00">RC Files</text>
</g>
<!-- editor -->
<g id="node1" class="node">
<title>editor</title>
<polygon fill="PaleGreen" stroke="PaleGreen" points="240.75,-412 103.25,-412 103.25,-376 240.75,-376 240.75,-412"/>
<text text-anchor="middle" x="172" y="-388.57" font-family="Times New Roman,serif" font-size="14.00">VSCode based editor</text>
</g>
<!-- REPO -->
<g id="node2" class="node">
<title>REPO</title>
<polygon fill="#bfefff" stroke="#bfefff" points="153.75,-52 34.25,-52 34.25,-16 153.75,-16 153.75,-52"/>
<text text-anchor="middle" x="94" y="-28.57" font-family="Times New Roman,serif" font-size="14.00">YAML/JSON files</text>
</g>
<!-- editor&#45;&gt;REPO -->
<g id="edge1" class="edge">
<title>editor&#45;&gt;REPO</title>
<path fill="none" stroke="black" d="M165.8,-364.56C153.6,-308.54 126.14,-182.53 108.94,-103.57"/>
<polygon fill="black" stroke="black" points="159.58,-358.72 166.66,-366.6 166.04,-356.03 159.58,-358.72"/>
<polygon fill="black" stroke="black" points="112.45,-103.25 106.9,-94.23 105.61,-104.74 112.45,-103.25"/>
</g>
<!-- rca -->
<g id="node3" class="node">
<title>rca</title>
<polygon fill="PaleGreen" stroke="PaleGreen" points="236,-232 182,-232 182,-196 236,-196 236,-232"/>
<text text-anchor="middle" x="209" y="-208.57" font-family="Times New Roman,serif" font-size="14.00">Run</text>
</g>
<!-- editor&#45;&gt;rca -->
<g id="edge2" class="edge">
<title>editor&#45;&gt;rca</title>
<path fill="none" stroke="black" d="M177.2,-368C181.73,-346.18 188.54,-313.44 194.69,-283.85"/>
<polygon fill="black" stroke="black" points="198.08,-284.73 196.69,-274.23 191.23,-283.31 198.08,-284.73"/>
</g>
<!-- rca&#45;&gt;REPO -->
<g id="edge3" class="edge">
<title>rca&#45;&gt;REPO</title>
<path fill="none" stroke="black" d="M191.54,-185.98C175.62,-161.33 151.55,-124.08 131.31,-92.75"/>
<polygon fill="black" stroke="black" points="182.89,-182.84 192.64,-186.98 187.6,-177.66 182.89,-182.84"/>
</g>
<!-- rcar -->
<g id="node4" class="node">
<title>rcar</title>
<polygon fill="PaleGreen" stroke="PaleGreen" points="282.25,-52 177.75,-52 177.75,-16 282.25,-16 282.25,-52"/>
<text text-anchor="middle" x="230" y="-28.57" font-family="Times New Roman,serif" font-size="14.00">VDP XLT JLT </text>
</g>
<!-- rca&#45;&gt;rcar -->
<g id="edge5" class="edge">
<title>rca&#45;&gt;rcar</title>
<path fill="none" stroke="black" d="M211.95,-188C214.52,-166.18 218.39,-133.44 221.88,-103.85"/>
<polygon fill="black" stroke="black" points="225.31,-104.59 223.01,-94.25 218.36,-103.77 225.31,-104.59"/>
</g>
<!-- xlt -->
<g id="node6" class="node">
<title>xlt</title>
<polygon fill="pink" stroke="pink" points="456,-52 402,-52 402,-16 456,-16 456,-52"/>
<text text-anchor="middle" x="429" y="-28.57" font-family="Times New Roman,serif" font-size="14.00">XLT</text>
</g>
<!-- rca&#45;&gt;xlt -->
<g id="edge4" class="edge">
<title>rca&#45;&gt;xlt</title>
<path fill="none" stroke="black" d="M259.26,-188C296.23,-168 346.52,-137.28 384.99,-100.65"/>
<polygon fill="black" stroke="black" points="387.26,-103.33 391.92,-93.81 382.34,-98.34 387.26,-103.33"/>
</g>
<!-- vdp -->
<g id="node5" class="node">
<title>vdp</title>
<polygon fill="pink" stroke="pink" points="384,-52 330,-52 330,-16 384,-16 384,-52"/>
<text text-anchor="middle" x="357" y="-28.57" font-family="Times New Roman,serif" font-size="14.00">VDP</text>
</g>
<!-- jlt -->
<g id="node7" class="node">
<title>jlt</title>
<polygon fill="pink" stroke="pink" points="528,-52 474,-52 474,-16 528,-16 528,-52"/>
<text text-anchor="middle" x="501" y="-28.57" font-family="Times New Roman,serif" font-size="14.00">JLT</text>
</g>
</g>
</svg>
